<?xml version="1.0" encoding="UTF-8" standalone="no"?>
<!-- Uploaded to: SVG Repo, www.svgrepo.com, Generator: SVG Repo Mixer Tools -->

<svg
   width="419.83801"
   height="704.49799"
   viewBox="0 0 209.91901 352.24899"
   fill="none"
   version="1.1"
   id="svg12"
   xmlns="http://www.w3.org/2000/svg"
   xmlns:svg="http://www.w3.org/2000/svg">
  <defs
     id="defs12" />
  <g
     id="layer3"
     transform="translate(-88.541,-24.042992)">
    <path
       d="M 197.181,135.097 C 174.006,169.88 170.18,214.61 170.18,255.376"
       stroke="#000000"
       stroke-opacity="0.9"
       stroke-width="16"
       stroke-linecap="round"
       stroke-linejoin="round"
       id="path2" />
    <path
       d="m 254.164,134.663 c 27.646,28.607 30.073,81.04 30.073,113.033"
       stroke="#000000"
       stroke-opacity="0.9"
       stroke-width="16"
       stroke-linecap="round"
       stroke-linejoin="round"
       id="path4" />
    <path
       d="m 197.259,140.007 c 0.65,75.401 6.299,153.716 -2.532,228.285"
       stroke="#000000"
       stroke-opacity="0.9"
       stroke-width="16"
       stroke-linecap="round"
       stroke-linejoin="round"
       id="path5" />
    <path
       d="m 254.631,139.849 c -1.149,76.327 -11.236,153.143 2.646,228.14"
       stroke="#000000"
       stroke-opacity="0.9"
       stroke-width="16"
       stroke-linecap="round"
       stroke-linejoin="round"
       id="path6" />
    <path
       d="m 199.203,211.402 c 17.962,-8.665 32.358,-3.852 50.813,-3.852"
       stroke="#000000"
       stroke-opacity="0.9"
       stroke-width="16"
       stroke-linecap="round"
       stroke-linejoin="round"
       id="path7" />
    <path
       d="m 199.203,132.59 c 13.515,27.981 32.395,55.319 50.813,66.368"
       stroke="#000000"
       stroke-opacity="0.9"
       stroke-width="16"
       stroke-linecap="round"
       stroke-linejoin="round"
       id="path12" />
  </g>
  <g
     id="layer1"
     transform="translate(-88.541,-24.042992)" />
  <g
     id="layer2"
     style="display:inline"
     transform="translate(-88.541,-24.042992)">
    <path
       d="m 112.668,185.108 c -12.641,7.099 -14.7285,16.228 -14.7285,24.547"
       stroke="#000000"
       stroke-opacity="0.9"
       stroke-width="16"
       stroke-linecap="round"
       stroke-linejoin="round"
       id="path3" />
    <path
       d="m 113.723,184.19 c 68.669,31.292 77.322,54.003 176.737,139.917"
       stroke="#000000"
       stroke-opacity="0.9"
       stroke-width="16"
       stroke-linecap="round"
       stroke-linejoin="round"
       id="path8" />
    <path
       d="m 96.541,208.737 c 25.78,16.435 58.3,17.902 85.914,31.911"
       stroke="#000000"
       stroke-opacity="0.9"
       stroke-width="16"
       stroke-linecap="round"
       stroke-linejoin="round"
       id="path9" />
    <path
       d="m 160.363,233.284 c 13.893,19.501 37.573,26.175 58.913,34.366"
       stroke="#000000"
       stroke-opacity="0.9"
       stroke-width="16"
       stroke-linecap="round"
       stroke-linejoin="round"
       id="path10" />
  </g>
  <path
     d="M 200.966,58.4143 C 297.793,-39.179 274.154,169.873 209.433,105.282 194.092,89.976 196.321,77.7647 199.426,59.1828"
     stroke="#000000"
     stroke-opacity="0.9"
     stroke-width="16"
     stroke-linecap="round"
     stroke-linejoin="round"
     id="path1"
     transform="translate(-88.541,-24.042992)" />
  <path
     d="m 261.004,61.4561 c -7.347,0 -51.645,0 -58.912,0"
     stroke="#000000"
     stroke-opacity="0.9"
     stroke-width="16"
     stroke-linecap="round"
     stroke-linejoin="round"
     id="path11"
     transform="translate(-88.541,-24.042992)"
     style="fill:#0000ff;fill-opacity:1;stroke-linejoin:miter;stroke-linecap:square;stroke:#00ff00;stroke-opacity:0.89999998;stroke-width:13.90000006;stroke-dasharray:none" />
  <path
     style="fill:#0000ff;stroke:#ff0000;stroke-width:5.00000002;fill-opacity:1;stroke-dasharray:none;stroke-linejoin:miter;stroke-opacity:1"
     d="M 69.400055,67.65047 C 68.62246,66.87288 67.67727,66.232685 67.06728,65.317695 c -0.215665,-0.323495 0.22598,-0.85001 0,-1.166385 -1.77596,-2.486345 -5.014855,-5.287215 -7.58152,-6.998325 -1.982515,-1.32168 -0.31277,-0.0782 -2.332775,-0.583195 -3.53343,-0.883355 -1.556785,-0.0964 -5.248745,1.74958 -0.34775,0.173875 -0.891465,-0.27492 -1.166385,0 -0.27492,0.27492 0.215665,0.84289 0,1.16639 -0.24112,0.36168 -0.859019,0.275825 -1.166389,0.583195 -1.403118,1.403115 -2.512268,7.50065 -1.749581,9.3311 3.874355,9.29845 12.88642,14.802855 18.6622,22.744555 0.167885,0.230845 5.852485,6.09271 4.082355,8.74791 -0.776925,1.16538 -1.56619,1.47962 -2.91597,1.74957 -1.76079,0.35216 -12.694025,0.47146 -14.57984,0 -2.18417,-0.54604 -3.496598,-1.74787 -5.248745,-2.915965 -0.161749,-0.10783 -0.445734,0.13746 -0.583194,0 -1.489659,-1.48966 -1.708487,-3.458065 -2.332775,-4.082355 -0.30737,-0.30737 -0.905575,-0.235445 -1.166387,-0.583195 -0.26965,-0.35953 -0.327608,-2.05318 -1.166388,-2.332775 -3.480314,-1.160105 -17.315498,1.488695 -19.828586,3.499165 -2.311929,1.84954 -0.919076,5.775115 0,8.164705 1.159139,3.01376 4.167671,9.24313 5.831937,11.66388 3.015727,4.38651 11.693989,11.09072 16.912618,12.83026 3.626394,1.2088 7.883915,0.58319 11.663875,0.58319 1.88994,0 10.51894,0.57247 11.663875,0 0.869375,-0.43468 1.50853,-1.23442 2.332775,-1.74958 1.494875,-0.9343 3.37616,-1.62658 4.66555,-2.91597 1.04015,-1.04015 1.995645,-2.93195 2.915965,-4.08235 0.343485,-0.42936 0.920495,-0.6746 1.16639,-1.16639 0.173875,-0.34775 -0.24288,-0.86279 0,-1.16639 0.607195,-0.75899 1.70021,-1.01159 2.332775,-1.74958 1.13156,-1.32015 1.41124,-3.19109 2.332775,-4.66555 1.781045,-2.84967 3.71889,-5.43459 4.66555,-8.7479 0.373835,-1.30843 -0.135405,-2.72833 0,-4.08236 0.243485,-2.43488 1.271555,-4.6082 1.74958,-6.99832 0.1525,-0.762495 0.188595,-1.578405 0,-2.332775 -0.169995,-0.679985 -0.94474,-1.08464 -1.166385,-1.749585 -0.420625,-1.261865 -0.540735,-2.831045 -1.16639,-4.082355 -1.15738,-2.31476 -0.184325,2.57753 -1.166385,-2.332775 -0.114375,-0.57187 0.26081,-1.227955 0,-1.74958 -0.12295,-0.245895 -0.49626,-0.32238 -0.583195,-0.583195 -0.545025,-1.635075 0.76624,-4.299455 0,-5.831935 -0.235295,-0.47059 -1.876895,-0.710505 -2.332775,-1.16639 -1.274825,-1.274825 -2.622065,-1.94244 -4.082355,-2.915965 -1.066155,-0.710775 -1.231375,-2.91597 -2.91597,-2.91597 -0.97199,0 -1.94398,0 -2.91597,0 -0.194395,0 -0.583195,-0.1944 -0.583195,0 0,0.194395 0.3888,0 0.583195,0 0.583195,0 1.16639,0 1.74958,0 0.884205,0 3.13364,0.513385 3.499165,-0.583195 0.18442,-0.553265 -0.41238,-1.3372 0,-1.74958 0.13746,-0.13746 0.47536,0.16175 0.583195,0 2.250065,-3.375105 1.831035,-7.92034 0.58319,-11.663875 -0.179375,-0.538125 -0.24924,-1.99882 -0.58319,-2.332775 -0.40991,-0.409907 -4.166645,0 -4.66555,0 -3.163745,0 -2.518835,0.67622 -4.66555,1.74958 -0.44173,0.220865 -2.623305,-0.002 -2.91597,0.583195 -0.985415,1.970835 0.22402,6.55028 -0.583195,8.16471 -0.817595,1.635195 -1.166385,2.59554 -1.166385,4.66555"
     id="path13" />
</svg>
