<?xml version="1.0" standalone="no"?>
<!DOCTYPE svg PUBLIC "-//W3C//DTD SVG 20010904//EN"
 "http://www.w3.org/TR/2001/REC-SVG-20010904/DTD/svg10.dtd">
<svg version="1.0" xmlns="http://www.w3.org/2000/svg"
 width="1280.000000pt" height="580.000000pt" viewBox="0 0 1280.000000 580.000000"
 preserveAspectRatio="xMidYMid meet">
<metadata>
Created by potrace 1.15, written by Peter Selinger 2001-2017
</metadata>
<g transform="translate(0.000000,580.000000) scale(0.100000,-0.100000)"
fill="#000000" stroke="none">
<path d="M11768 4998 c-8 -14 -15 -82 -18 -178 l-6 -155 -91 -185 c-50 -102
-102 -212 -115 -245 l-24 -60 -530 4 c-465 3 -532 5 -554 19 -14 9 -64 26
-111 38 -47 12 -106 32 -130 44 -67 35 -137 115 -212 242 -37 64 -77 124 -87
133 -19 17 -58 18 -596 16 -430 -1 -580 2 -591 11 -8 6 -60 13 -118 16 l-105
5 -17 36 c-16 32 -23 36 -62 39 -24 2 -53 9 -65 17 -16 10 -119 16 -426 24
-223 6 -461 13 -530 16 -254 11 -831 8 -843 -4 -6 -6 -29 -11 -50 -11 -24 0
-49 -8 -64 -20 -36 -28 -51 -25 -66 13 -8 18 -30 47 -50 64 -36 32 -38 32
-143 32 -96 0 -109 2 -130 22 -28 26 -76 29 -101 7 -20 -18 -86 -25 -329 -34
-140 -6 -165 -4 -185 10 -30 21 -93 21 -126 -1 -41 -27 -111 -18 -151 20 -39
38 -57 28 -46 -27 8 -47 36 -66 111 -73 96 -9 114 -43 21 -38 -54 2 -88 -13
-88 -42 0 -16 -85 -16 -2253 -3 -1018 5 -1520 5 -1545 -2 -22 -6 -55 -29 -82
-57 -25 -25 -83 -86 -129 -134 -82 -86 -84 -87 -131 -87 -44 0 -51 -3 -77 -38
-44 -56 -46 -62 -29 -80 14 -16 12 -21 -19 -61 -19 -23 -37 -53 -41 -64 -4
-12 -17 -34 -29 -49 -14 -16 -26 -47 -29 -75 -12 -97 5 -182 130 -630 20 -74
32 -82 104 -76 33 3 60 3 60 0 0 -3 -7 -37 -15 -76 -17 -80 -17 -77 38 -191
32 -64 42 -99 45 -147 5 -68 2 -78 -61 -213 -22 -47 -65 -155 -97 -240 -32
-85 -79 -211 -105 -280 -147 -388 -144 -378 -124 -448 17 -64 70 -145 110
-169 19 -12 84 -41 144 -64 108 -43 112 -44 225 -43 92 0 127 5 175 22 97 36
105 48 122 198 15 137 65 310 123 424 33 66 169 401 195 480 27 84 82 191 116
228 17 18 53 44 82 58 l51 26 15 -20 c9 -12 24 -33 34 -47 27 -37 93 -67 164
-73 34 -2 201 1 370 7 282 11 312 14 353 34 32 16 51 34 66 62 l20 40 67 3
c41 2 67 -1 67 -7 0 -6 12 -17 28 -25 27 -14 27 -15 27 -122 0 -95 2 -109 18
-112 22 -4 23 -1 37 157 12 122 15 136 40 165 46 53 53 75 52 166 l-1 85 62
-3 c34 -2 65 -7 70 -11 4 -4 16 -59 27 -122 69 -409 294 -977 540 -1364 99
-157 275 -399 379 -524 211 -252 632 -642 862 -799 42 -29 86 -63 99 -77 13
-14 29 -25 36 -25 7 0 38 37 70 82 81 118 384 587 395 612 5 12 39 64 75 116
l66 94 -23 19 c-13 10 -76 52 -139 94 -232 153 -346 250 -503 430 -58 67 -111
124 -117 128 -20 13 -222 289 -275 375 -164 271 -286 551 -367 845 -45 166
-76 318 -70 353 4 32 5 32 61 32 31 0 190 5 355 11 l298 10 52 -49 c28 -27 69
-55 91 -63 54 -19 184 -17 270 4 206 50 507 86 785 93 241 7 418 -8 633 -52
152 -31 277 -40 336 -24 50 13 137 88 157 136 13 30 15 31 96 37 46 4 162 7
258 8 96 0 200 5 230 10 30 6 82 13 115 17 57 7 61 9 78 45 l17 37 648 1 c356
1 654 0 662 -1 8 -1 19 -8 23 -16 12 -21 96 -18 121 5 20 18 52 18 981 11 528
-5 988 -10 1023 -13 60 -5 62 -4 62 18 0 31 18 42 22 13 9 -62 63 6 74 95 l7
47 118 0 c141 0 139 -2 139 122 0 117 0 117 -140 120 l-115 3 4 406 c3 297 1
411 -8 427 -14 26 -71 30 -111 7 -35 -20 -80 -18 -118 5 -43 27 -78 26 -94 -2z
m-5750 -150 c17 -17 -4 -48 -32 -48 -13 0 -27 7 -30 16 -13 34 35 59 62 32z
m-298 -9 c-29 -10 -293 -50 -298 -44 -2 1 2 12 9 24 15 24 40 27 199 29 80 0
107 -2 90 -9z m6267 -395 c11 -15 9 -123 -3 -161 -2 -10 -41 -13 -149 -13
-120 0 -147 3 -151 15 -6 15 2 38 45 139 l22 49 112 -7 c85 -5 115 -10 124
-22z m-2904 -122 c490 2 629 -1 646 -15 9 -8 12 -25 7 -61 -3 -27 -7 -50 -9
-53 -2 -2 -247 0 -543 4 l-539 8 -3 37 -3 37 -72 3 c-58 2 -72 6 -75 20 -3 15
9 18 95 20 54 2 104 3 111 1 6 -1 180 -2 385 -1z m652 -432 c41 -46 35 -46
-431 -53 -240 -4 -527 -7 -636 -7 -187 0 -198 1 -198 19 0 16 10 19 75 23 41
3 80 10 88 16 10 9 160 13 528 15 283 1 523 3 535 5 11 1 29 -7 39 -18z m1497
0 c63 -11 85 -11 125 -1 26 7 69 15 95 18 42 4 48 2 64 -22 17 -26 18 -26 103
-20 89 7 154 -6 135 -25 -7 -7 -251 -9 -665 -8 l-654 3 -3 23 c-8 55 -21 53
365 49 246 -2 382 -8 435 -17z m-1017 -39 c3 -5 2 -11 -2 -13 -18 -7 -213 4
-213 13 0 12 207 12 215 0z m-7137 -399 c27 -27 37 -82 15 -82 -14 0 -15 -21
-8 -207 7 -208 7 -208 -17 -243 -18 -26 -35 -38 -69 -46 -57 -14 -635 -38
-697 -29 -86 13 -137 48 -152 107 -10 34 -8 43 16 84 24 41 26 52 21 117 -2
39 -10 73 -16 75 -15 5 -15 178 0 188 6 3 25 -7 42 -24 18 -17 52 -41 77 -54
48 -25 59 -41 92 -133 35 -99 171 -212 245 -203 26 3 22 7 -47 53 -62 41 -80
60 -102 104 -52 102 -31 208 50 265 38 26 48 28 204 35 291 14 326 13 346 -7z"/>
</g>
</svg>
